# xmcd CD database file
#
# Track frame offsets:
#	150
#	17608
#	31923
#	48993
#	66118
#
# Disc length: 1114 seconds
#
# Revision: 0
# Processed by: cddbd v1.5.2PL0 Copyright (c) Steve Scherf et al.
# Submitted via: CDex 1.70beta2
#
DISCID=35045805
DTITLE=Grun, C.P. - Red Shoe Blues
DYEAR=2003
DGENRE=Blues
TTITLE0=Red Shoe Blues (classic mix)
TTITLE1=Why Did You Hurt Me So
TTITLE2=Sometimes
TTITLE3=Red Shoe Blues (line dance mix)
TTITLE4=Red Shoe Blues (telephone mix)
EXTD=YEAR: 2003
EXTT0=
EXTT1=
EXTT2=
EXTT3=
EXTT4=
PLAYORDER=
